<svg xmlns="http://www.w3.org/2000/svg" viewBox="0 0 256 256" width="256" height="256">
  <path d="M 107.79,33.68 L 94.32,40.42 L 60.63,74.11 L 53.89,94.32 L 53.89,134.74 L 60.63,148.21 L 74.11,161.68 L 74.11,168.42 L 80.84,175.16 L 87.58,175.16 L 101.05,188.63 L 121.26,195.37 L 148.21,195.37 L 181.89,181.89 L 202.11,161.68 L 215.58,134.74 L 215.58,87.58 L 195.37,53.89 L 161.68,33.68 Z M 161.68,40.42 L 175.16,47.16 L 202.11,74.11 L 208.84,87.58 L 208.84,141.47 L 195.37,161.68 L 181.89,175.16 L 154.95,188.63 L 121.26,188.63 L 101.05,181.89 L 67.37,148.21 L 60.63,128.0 L 60.63,94.32 L 74.11,67.37 L 94.32,47.16 L 107.79,40.42 Z" fill="currentColor" fill-rule="evenodd"/>
</svg>
