<svg xmlns="http://www.w3.org/2000/svg" viewBox="0 0 256 256" width="256" height="256">
  <path d="M 199.11,64.0 L 203.85,93.09 L 189.63,104.73 L 208.59,116.36 L 194.37,122.18 L 194.37,133.82 L 208.59,139.64 L 203.85,157.09 L 213.33,157.09 L 241.78,145.45 L 251.26,151.27 L 241.78,116.36 L 251.26,64.0 L 241.78,69.82 L 232.3,58.18 Z M 227.56,116.36 L 232.3,139.64 L 218.07,128.0 Z M 104.3,81.45 L 104.3,93.09 L 113.78,104.73 L 151.7,110.55 L 132.74,116.36 L 128.0,128.0 L 109.04,133.82 L 109.04,139.64 L 104.3,151.27 L 113.78,151.27 L 123.26,139.64 L 132.74,157.09 L 156.44,157.09 L 165.93,139.64 L 170.67,151.27 L 180.15,151.27 L 180.15,139.64 L 161.19,116.36 L 170.67,93.09 L 180.15,93.09 L 180.15,81.45 L 146.96,58.18 L 137.48,58.18 L 113.78,81.45 Z M 137.48,139.64 L 142.22,128.0 L 151.7,139.64 Z M 28.44,58.18 L 23.7,69.82 L 28.44,110.55 L 37.93,128.0 L 23.7,128.0 L 18.96,139.64 L 18.96,151.27 L 33.19,139.64 L 42.67,157.09 L 71.11,151.27 L 75.85,133.82 L 85.33,151.27 L 94.81,139.64 L 80.59,116.36 L 80.59,58.18 Z M 47.41,139.64 L 52.15,128.0 L 66.37,139.64 Z M 66.37,110.55 L 75.85,128.0 L 71.11,139.64 L 66.37,128.0 Z" fill="currentColor" fill-rule="evenodd"/>
</svg>
